<svg version="1.1" xmlns="http://www.w3.org/2000/svg" xmlns:xlink="http://www.w3.org/1999/xlink" x="0px" y="0px"
	 viewBox="0 0 13.4 12.5">
<path class="st0" d="M13.4,3.9c-0.6-3-4.5-3.4-5.7-0.8C6.2,0.4,2.1-1.7,0.4,2c-1.7,3.8,1.8,8.5,5.3,9.8c-0.1,0.4,0.5,0.9,0.9,0.6
	C9.1,10.6,14.2,7.7,13.4,3.9z M11.7,6.4c-0.4,0.7-1.1,1.3-1.8,1.9c-1.2,1-2.5,2-3.7,3c0,0-0.1-0.1-0.1-0.1C4,9.7,2.2,7.8,1.6,5.3
	C1.2,3.7,1.5,1.7,3.3,1.5c2-0.2,2.8,1.3,3.7,2.8c0.3,0.5,1.2,0.2,1-0.4c0,0,0,0,0,0c0.1,0,0.1-0.1,0.2-0.1c1.2-1.7,2.5-1.6,4,0.2
	C12.3,4.8,12.2,5.6,11.7,6.4z"/>
</svg>
